<?xml version="1.0" encoding="utf-8"?>
<!-- Generator: Adobe Illustrator 17.1.0, SVG Export Plug-In . SVG Version: 6.00 Build 0)  -->
<!DOCTYPE svg PUBLIC "-//W3C//DTD SVG 1.1//EN" "http://www.w3.org/Graphics/SVG/1.1/DTD/svg11.dtd">
<svg version="1.1" id="Layer_1" xmlns="http://www.w3.org/2000/svg" xmlns:xlink="http://www.w3.org/1999/xlink" x="0px" y="0px"
	 viewBox="0 0 75.4 19.4" enable-background="new 0 0 75.4 19.4" xml:space="preserve">
<linearGradient id="SVGID_1_" gradientUnits="userSpaceOnUse" x1="-79.7031" y1="132.3971" x2="-70.9632" y2="115.2442" gradientTransform="matrix(0.9976 6.980000e-02 -6.980000e-02 0.9976 90.9853 -109.9906)">
	<stop  offset="0" style="stop-color:#51E6B7"/>
	<stop  offset="0.6708" style="stop-color:#38CBE7"/>
	<stop  offset="1" style="stop-color:#2CBEFF;stop-opacity:0.78"/>
</linearGradient>
<path opacity="0.55" fill="url(#SVGID_1_)" d="M15.4,6.2c-0.2,0.5-0.5,0.9-0.9,1.3c-1.1-1.2-2.6-1.9-4.3-2.1
	c-3.8-0.4-7.3,2.4-7.7,6.2c-0.4,3.8,2.3,7.2,6,7.6c-5.2-0.6-9-5.4-8.5-10.6c0.6-5.3,5.3-9.2,10.7-8.6c0,0,0,0,0,0c0.1,0,0.1,0,0.2,0
	c0.3,0,0.6,0.1,1,0.2c0,0,0.1,0,0.1,0C15.4,1.2,16.5,3.9,15.4,6.2z"/>
<linearGradient id="SVGID_2_" gradientUnits="userSpaceOnUse" x1="-72.6549" y1="134.804" x2="-74.5971" y2="120.9845" gradientTransform="matrix(0.9976 6.980000e-02 -6.980000e-02 0.9976 90.9853 -109.9906)">
	<stop  offset="0" style="stop-color:#51E6B7"/>
	<stop  offset="1" style="stop-color:#2CBEFF"/>
</linearGradient>
<path opacity="0.75" fill="url(#SVGID_2_)" d="M14.8,16.9c-1.3,1.6-3.4,2.6-5.6,2.5c-0.1,0-0.2,0-0.3,0c0,0-0.1,0-0.1,0
	c-0.1,0-0.1,0-0.2,0c-3.7-0.5-6.4-3.9-6-7.6c0.4-3.8,3.8-6.6,7.7-6.2c1.7,0.2,3.2,1,4.3,2.1C14.2,7.8,14,8,13.8,8.2
	c-0.9,0.7-1.9,1.3-3.1,1.8l0,0l0,0c0,0,0,0,0,0c0,0,0,0,0,0c0,0,0,0,0,0c0,0-0.1,0-0.1,0.1c0,0,0,0,0,0c-0.3,0.1-0.6,0.2-0.8,0.4
	c-1,0.7-1.7,1.7-1.9,3c0,0.5,0,0.9,0.1,1.4c0.4,1.7,1.8,3,3.6,3.2C12.7,18.2,13.9,17.7,14.8,16.9z"/>
<linearGradient id="SVGID_3_" gradientUnits="userSpaceOnUse" x1="-70.0064" y1="133.289" x2="-70.5803" y2="125.0869" gradientTransform="matrix(0.9976 6.980000e-02 -6.980000e-02 0.9976 90.9853 -109.9906)">
	<stop  offset="0" style="stop-color:#51E6B7"/>
	<stop  offset="1" style="stop-color:#2CBEFF"/>
</linearGradient>
<path fill="url(#SVGID_3_)" d="M15.9,14.4c0,0.4-0.1,0.7-0.3,1.1c0,0,0,0,0,0c-0.2,0.5-0.5,0.9-0.8,1.3c0,0-0.1,0.1-0.1,0.1
	c0,0,0,0,0,0c-0.8,0.9-2.1,1.3-3.4,1.2c-1.8-0.2-3.2-1.5-3.6-3.2c-0.1-0.4-0.1-0.9-0.1-1.4c0.1-1.3,0.9-2.4,1.9-3
	c0.3-0.2,0.5-0.3,0.8-0.4c-0.6,0.3-1,0.8-1.1,1.5c0,0.2,0,0.4,0,0.6c0.2,0.7,0.8,1.3,1.6,1.4c1,0.1,1.9-0.6,2-1.6
	c0.1-0.6-0.1-1.1-0.5-1.5c-0.2-0.2-0.3-0.3-0.5-0.4c-0.1,0-0.1-0.1-0.2-0.1c-0.2-0.1-0.2-0.1,0-0.1c0,0,0,0,0,0c0.1,0,0.3,0,0.4,0
	c0.1,0,0.2,0,0.3,0h0c0.5,0.1,1,0.3,1.4,0.5c0.2,0.1,0.4,0.2,0.5,0.4c0.9,0.8,1.5,1.9,1.5,3.2v0C16,14.2,15.9,14.3,15.9,14.4z"/>
<g opacity="0.9">
	<g>
		<path fill="#44D8CF" d="M24.3,10.1c0,0.8-0.3,1.5-0.9,2.1c-0.6,0.6-1.3,0.9-2.1,0.9c-0.8,0-1.5-0.3-2.1-0.9
			c-0.6-0.6-0.9-1.3-0.9-2.1c0-0.8,0.3-1.5,0.9-2.1c0.6-0.6,1.3-0.9,2.1-0.9c0.9,0,1.6,0.3,2.2,0.9c0.1,0.1,0.1,0.1,0.1,0.2
			c0,0.1-0.1,0.2-0.1,0.2c-0.1,0-0.1,0.1-0.2,0c-0.1,0-0.1,0-0.2-0.1c-0.5-0.5-1-0.8-1.7-0.8c-0.6,0-1.2,0.2-1.7,0.7
			c-0.5,0.5-0.7,1-0.7,1.6c0,0.6,0.2,1.2,0.7,1.6c0.5,0.5,1,0.7,1.7,0.7c0.6,0,1.1-0.2,1.5-0.6c0.4-0.4,0.7-0.9,0.8-1.5h-2.2
			c-0.1,0-0.2,0-0.2-0.1c-0.1-0.1-0.1-0.1-0.1-0.2c0-0.1,0-0.2,0.1-0.2c0.1-0.1,0.1-0.1,0.2-0.1H24c0.1,0,0.2,0,0.2,0.1
			C24.3,9.9,24.3,10,24.3,10.1z"/>
	</g>
	<g>
		<path fill="#44D8CF" d="M27.1,9.1c0,0.1,0,0.2-0.1,0.2c-0.1,0.1-0.1,0.1-0.2,0.1h-0.2c-0.3,0-0.5,0.1-0.7,0.3
			c-0.2,0.2-0.3,0.4-0.3,0.7v2.4c0,0.1,0,0.2-0.1,0.2C25.4,13,25.3,13,25.3,13h0c-0.1,0-0.2,0-0.2-0.1c-0.1-0.1-0.1-0.1-0.1-0.2
			v-2.4c0-0.4,0.2-0.8,0.5-1.1c0.3-0.3,0.7-0.5,1.1-0.5h0.2c0.1,0,0.2,0,0.2,0.1C27,8.9,27.1,9,27.1,9.1z"/>
	</g>
	<g>
		<path fill="#44D8CF" d="M30.9,9.4C30.5,9,30,8.8,29.4,8.8c-0.6,0-1.1,0.2-1.5,0.6c-0.4,0.4-0.6,0.9-0.6,1.5c0,0.6,0.2,1.1,0.6,1.5
			c0.4,0.4,0.9,0.6,1.5,0.6c0.6,0,1.1-0.2,1.5-0.6c0.4-0.4,0.6-0.9,0.6-1.5C31.5,10.3,31.3,9.8,30.9,9.4z M29.4,12.5
			c-0.4,0-0.8-0.2-1.1-0.5c-0.3-0.3-0.5-0.7-0.5-1.1c0-0.4,0.2-0.8,0.5-1.1c0.3-0.3,0.7-0.5,1.1-0.5c0.4,0,0.8,0.2,1.1,0.5
			c0.3,0.3,0.5,0.7,0.5,1.1c0,0.4-0.2,0.8-0.5,1.1C30.2,12.3,29.8,12.5,29.4,12.5z"/>
		<path fill="#44D8CF" d="M30.5,9.8c-0.3-0.3-0.7-0.5-1.1-0.5c-0.4,0-0.8,0.2-1.1,0.5c-0.3,0.3-0.5,0.7-0.5,1.1
			c0,0.4,0.2,0.8,0.5,1.1c0.3,0.3,0.7,0.5,1.1,0.5c0.4,0,0.8-0.2,1.1-0.5c0.3-0.3,0.5-0.7,0.5-1.1C31,10.5,30.8,10.1,30.5,9.8z
			 M30.5,12c-0.3,0.3-0.7,0.4-1.1,0.4c-0.4,0-0.8-0.1-1.1-0.4c-0.3-0.3-0.4-0.7-0.4-1.1c0-0.4,0.2-0.8,0.4-1.1
			c0.3-0.3,0.7-0.4,1.1-0.4c0.4,0,0.8,0.1,1.1,0.4c0.3,0.3,0.4,0.7,0.4,1.1C30.9,11.3,30.8,11.7,30.5,12z M30.5,9.8
			c-0.3-0.3-0.7-0.5-1.1-0.5c-0.4,0-0.8,0.2-1.1,0.5c-0.3,0.3-0.5,0.7-0.5,1.1c0,0.4,0.2,0.8,0.5,1.1c0.3,0.3,0.7,0.5,1.1,0.5
			c0.4,0,0.8-0.2,1.1-0.5c0.3-0.3,0.5-0.7,0.5-1.1C31,10.5,30.8,10.1,30.5,9.8z M30.5,12c-0.3,0.3-0.7,0.4-1.1,0.4
			c-0.4,0-0.8-0.1-1.1-0.4c-0.3-0.3-0.4-0.7-0.4-1.1c0-0.4,0.2-0.8,0.4-1.1c0.3-0.3,0.7-0.4,1.1-0.4c0.4,0,0.8,0.1,1.1,0.4
			c0.3,0.3,0.4,0.7,0.4,1.1C30.9,11.3,30.8,11.7,30.5,12z M30.5,9.8c-0.3-0.3-0.7-0.5-1.1-0.5c-0.4,0-0.8,0.2-1.1,0.5
			c-0.3,0.3-0.5,0.7-0.5,1.1c0,0.4,0.2,0.8,0.5,1.1c0.3,0.3,0.7,0.5,1.1,0.5c0.4,0,0.8-0.2,1.1-0.5c0.3-0.3,0.5-0.7,0.5-1.1
			C31,10.5,30.8,10.1,30.5,9.8z M30.5,12c-0.3,0.3-0.7,0.4-1.1,0.4c-0.4,0-0.8-0.1-1.1-0.4c-0.3-0.3-0.4-0.7-0.4-1.1
			c0-0.4,0.2-0.8,0.4-1.1c0.3-0.3,0.7-0.4,1.1-0.4c0.4,0,0.8,0.1,1.1,0.4c0.3,0.3,0.4,0.7,0.4,1.1C30.9,11.3,30.8,11.7,30.5,12z"/>
	</g>
	<g>
		<path fill="#44D8CF" d="M38.5,9.1v2.2c0,0.5-0.2,0.9-0.5,1.2c-0.3,0.3-0.8,0.5-1.2,0.5c-0.6,0-1-0.3-1.4-0.8
			c-0.4,0.5-0.9,0.8-1.5,0.8c-0.5,0-0.9-0.2-1.2-0.5c-0.3-0.3-0.5-0.8-0.5-1.2V9.1c0-0.1,0-0.2,0.1-0.2c0.1-0.1,0.1-0.1,0.2-0.1
			c0.1,0,0.2,0,0.2,0.1c0.1,0.1,0.1,0.1,0.1,0.2v2.2c0,0.3,0.1,0.6,0.3,0.8c0.2,0.2,0.5,0.3,0.8,0.3c0.3,0,0.6-0.1,0.8-0.3
			c0.2-0.2,0.3-0.5,0.3-0.8V9.1c0-0.1,0-0.2,0.1-0.2c0.1-0.1,0.1-0.1,0.2-0.1c0.1,0,0.2,0,0.2,0.1c0.1,0.1,0.1,0.1,0.1,0.2v2.2
			c0,0.3,0.1,0.6,0.3,0.8c0.2,0.2,0.5,0.3,0.8,0.3c0.3,0,0.6-0.1,0.8-0.3c0.2-0.2,0.3-0.5,0.3-0.8V9.1c0-0.1,0-0.2,0.1-0.2
			c0.1-0.1,0.1-0.1,0.2-0.1c0.1,0,0.2,0,0.2,0.1C38.5,8.9,38.5,9,38.5,9.1z"/>
	</g>
</g>
<g opacity="0.9">
	<g>
		<path fill="#44D8CF" d="M44.9,12.4c0.1,0.1,0.1,0.1,0.1,0.2c0,0.2-0.1,0.3-0.2,0.3C44.6,13,44.3,13,44.1,13
			c-0.8,0-1.5-0.3-2.1-0.9c-0.6-0.6-0.9-1.3-0.9-2.1c0-0.8,0.3-1.5,0.9-2.1c0.6-0.6,1.3-0.9,2.1-0.9c0.3,0,0.5,0,0.7,0.1
			C45,7.3,45,7.4,45,7.5c0,0.1,0,0.2-0.1,0.2c-0.1,0.1-0.2,0.1-0.3,0.1c-0.2,0-0.4-0.1-0.6-0.1c-0.6,0-1.2,0.2-1.7,0.7
			c-0.5,0.5-0.7,1-0.7,1.6c0,0.6,0.2,1.2,0.7,1.6c0.5,0.5,1,0.7,1.7,0.7c0.2,0,0.4,0,0.6-0.1C44.8,12.3,44.8,12.3,44.9,12.4z"/>
	</g>
	<g>
		<path fill="#44D8CF" d="M49.1,9.4c-0.4-0.4-0.9-0.6-1.5-0.6c-0.6,0-1.1,0.2-1.5,0.6c-0.4,0.4-0.6,0.9-0.6,1.5
			c0,0.6,0.2,1.1,0.6,1.5c0.4,0.4,0.9,0.6,1.5,0.6c0.6,0,1.1-0.2,1.5-0.6c0.4-0.4,0.6-0.9,0.6-1.5C49.7,10.3,49.5,9.8,49.1,9.4z
			 M47.6,12.4c-0.4,0-0.8-0.1-1.1-0.4c-0.3-0.3-0.4-0.7-0.4-1.1c0-0.4,0.1-0.8,0.4-1.1s0.7-0.4,1.1-0.4c0.4,0,0.8,0.1,1.1,0.4
			c0.3,0.3,0.4,0.7,0.4,1.1c0,0.4-0.2,0.8-0.4,1.1C48.4,12.3,48,12.4,47.6,12.4z"/>
	</g>
	<g>
		<path fill="#44D8CF" d="M56.7,10.5v2.2c0,0.1,0,0.2-0.1,0.2C56.6,13,56.5,13,56.4,13h0c-0.1,0-0.2,0-0.2-0.1
			c-0.1-0.1-0.1-0.1-0.1-0.2v-2.2c0-0.3-0.1-0.6-0.3-0.8c-0.2-0.2-0.5-0.3-0.8-0.3c-0.3,0-0.6,0.1-0.8,0.3c-0.2,0.2-0.3,0.5-0.3,0.8
			v2.2c0,0.1,0,0.2-0.1,0.2C53.7,13,53.6,13,53.5,13c-0.1,0-0.2,0-0.2-0.1c-0.1-0.1-0.1-0.1-0.1-0.2v-2.2c0-0.3-0.1-0.6-0.3-0.8
			c-0.2-0.2-0.5-0.3-0.8-0.3c-0.3,0-0.6,0.1-0.8,0.3c-0.2,0.2-0.3,0.5-0.3,0.8v2.2c0,0.1,0,0.2-0.1,0.2C50.8,13,50.7,13,50.6,13
			c-0.1,0-0.2,0-0.2-0.1c-0.1-0.1-0.1-0.1-0.1-0.2v-2.2c0-0.5,0.2-0.9,0.5-1.2c0.3-0.3,0.8-0.5,1.2-0.5c0.6,0,1,0.3,1.5,0.8
			C53.9,9,54.4,8.8,55,8.8c0.5,0,0.9,0.2,1.2,0.5C56.5,9.6,56.7,10,56.7,10.5z"/>
	</g>
	<g>
		<path fill="#44D8CF" d="M60.6,9.8c-0.3-0.3-0.7-0.5-1.1-0.5c-0.4,0-0.8,0.2-1.1,0.5c-0.3,0.3-0.5,0.7-0.5,1.1
			c0,0.4,0.2,0.8,0.5,1.1c0.3,0.3,0.7,0.5,1.1,0.5c0.4,0,0.8-0.2,1.1-0.5c0.3-0.3,0.5-0.7,0.5-1.1C61.1,10.4,60.9,10.1,60.6,9.8z
			 M60.6,11.9c-0.3,0.3-0.6,0.4-1.1,0.4c-0.4,0-0.8-0.2-1.1-0.4c-0.3-0.3-0.4-0.7-0.4-1.1c0-0.4,0.2-0.8,0.4-1.1
			c0.3-0.3,0.7-0.4,1.1-0.4c0.4,0,0.8,0.1,1.1,0.4c0.3,0.3,0.4,0.7,0.4,1.1C61.1,11.3,60.9,11.6,60.6,11.9z M60.6,9.8
			c-0.3-0.3-0.7-0.5-1.1-0.5c-0.4,0-0.8,0.2-1.1,0.5c-0.3,0.3-0.5,0.7-0.5,1.1c0,0.4,0.2,0.8,0.5,1.1c0.3,0.3,0.7,0.5,1.1,0.5
			c0.4,0,0.8-0.2,1.1-0.5c0.3-0.3,0.5-0.7,0.5-1.1C61.1,10.4,60.9,10.1,60.6,9.8z M60.6,11.9c-0.3,0.3-0.6,0.4-1.1,0.4
			c-0.4,0-0.8-0.2-1.1-0.4c-0.3-0.3-0.4-0.7-0.4-1.1c0-0.4,0.2-0.8,0.4-1.1c0.3-0.3,0.7-0.4,1.1-0.4c0.4,0,0.8,0.1,1.1,0.4
			c0.3,0.3,0.4,0.7,0.4,1.1C61.1,11.3,60.9,11.6,60.6,11.9z M60.6,9.8c-0.3-0.3-0.7-0.5-1.1-0.5c-0.4,0-0.8,0.2-1.1,0.5
			c-0.3,0.3-0.5,0.7-0.5,1.1c0,0.4,0.2,0.8,0.5,1.1c0.3,0.3,0.7,0.5,1.1,0.5c0.4,0,0.8-0.2,1.1-0.5c0.3-0.3,0.5-0.7,0.5-1.1
			C61.1,10.4,60.9,10.1,60.6,9.8z M60.6,11.9c-0.3,0.3-0.6,0.4-1.1,0.4c-0.4,0-0.8-0.2-1.1-0.4c-0.3-0.3-0.4-0.7-0.4-1.1
			c0-0.4,0.2-0.8,0.4-1.1c0.3-0.3,0.7-0.4,1.1-0.4c0.4,0,0.8,0.1,1.1,0.4c0.3,0.3,0.4,0.7,0.4,1.1C61.1,11.3,60.9,11.6,60.6,11.9z"
			/>
		<path fill="#44D8CF" d="M61,9.4c-0.4-0.4-0.9-0.6-1.5-0.6c-0.6,0-1.1,0.2-1.5,0.6c-0.4,0.4-0.6,0.9-0.6,1.5v3.5
			c0,0.1,0,0.2,0.1,0.2c0.1,0.1,0.1,0.1,0.2,0.1h0c0.1,0,0.2,0,0.2-0.1c0.1-0.1,0.1-0.1,0.1-0.2v-2c0.5,0.4,1,0.6,1.5,0.6
			c0.6,0,1.1-0.2,1.5-0.6c0.4-0.4,0.6-0.9,0.6-1.5C61.7,10.3,61.5,9.8,61,9.4z M59.5,12.4c-0.4,0-0.8-0.2-1.1-0.5
			c-0.3-0.3-0.5-0.7-0.5-1.1c0-0.4,0.2-0.8,0.5-1.1c0.3-0.3,0.7-0.5,1.1-0.5c0.4,0,0.8,0.2,1.1,0.5c0.3,0.3,0.5,0.7,0.5,1.1
			c0,0.4-0.2,0.8-0.5,1.1C60.3,12.3,60,12.4,59.5,12.4z"/>
	</g>
	<g>
		<path fill="#44D8CF" d="M65.8,9.1v2.2c0,0.5-0.2,0.9-0.5,1.2C64.9,12.8,64.5,13,64,13c-0.5,0-0.9-0.2-1.3-0.5
			c-0.3-0.3-0.5-0.8-0.5-1.2V9.1c0-0.1,0-0.2,0.1-0.2c0.1-0.1,0.1-0.1,0.2-0.1c0.1,0,0.2,0,0.2,0.1c0.1,0.1,0.1,0.1,0.1,0.2v2.2
			c0,0.3,0.1,0.6,0.3,0.8c0.2,0.2,0.5,0.3,0.8,0.3c0.3,0,0.6-0.1,0.8-0.3c0.2-0.2,0.3-0.5,0.3-0.8V9.1c0-0.1,0-0.2,0.1-0.2
			c0.1-0.1,0.1-0.1,0.2-0.1c0.1,0,0.2,0,0.2,0.1C65.8,8.9,65.8,9,65.8,9.1z"/>
	</g>
	<g>
		<path fill="#44D8CF" d="M68.1,12.5c0.1,0.1,0.1,0.1,0.1,0.2c0,0.1,0,0.2-0.1,0.2C68,13,67.9,13,67.9,13h-0.3
			c-0.3,0-0.6-0.1-0.8-0.3c-0.2-0.2-0.3-0.5-0.3-0.8V7.4c0-0.1,0-0.2,0.1-0.2c0.1-0.1,0.1-0.1,0.2-0.1c0.1,0,0.2,0,0.2,0.1
			c0.1,0.1,0.1,0.1,0.1,0.2v1.3h0.8c0.1,0,0.2,0,0.2,0.1c0.1,0.1,0.1,0.1,0.1,0.2c0,0.1,0,0.2-0.1,0.2c-0.1,0.1-0.1,0.1-0.2,0.1
			h-0.8v2.6c0,0.1,0,0.2,0.1,0.3c0.1,0.1,0.2,0.1,0.3,0.1h0.3C67.9,12.4,68,12.4,68.1,12.5z"/>
	</g>
	<g>
		<path fill="#44D8CF" d="M72.6,11.3c-0.1-0.1-0.1-0.1-0.3-0.1c-0.1,0-0.2,0.1-0.3,0.2c-0.1,0.3-0.3,0.5-0.5,0.7
			c-0.3,0.2-0.6,0.3-0.9,0.3c-0.5,0-0.9-0.2-1.2-0.6c0.3-0.1,0.8-0.4,1.6-0.7c0.6-0.3,1.1-0.5,1.5-0.7c0.1,0,0.1-0.1,0.2-0.2
			c0-0.1,0-0.2,0-0.2c-0.2-0.4-0.4-0.7-0.8-0.9c-0.3-0.2-0.7-0.3-1.2-0.3c-0.6,0-1.1,0.2-1.5,0.6c-0.4,0.4-0.6,0.9-0.6,1.5
			c0,0.6,0.2,1.1,0.6,1.5c0.4,0.4,0.9,0.6,1.5,0.6c0.5,0,0.9-0.1,1.3-0.4c0.4-0.3,0.6-0.6,0.8-1C72.6,11.5,72.6,11.4,72.6,11.3z
			 M70.6,9.3c0.5,0,0.9,0.2,1.3,0.7l-2.9,1.3c0-0.2,0-0.3,0-0.4c0-0.4,0.2-0.8,0.5-1.1C69.8,9.5,70.2,9.3,70.6,9.3z"/>
		<path fill="#44D8CF" d="M70.6,9.3c-0.4,0-0.8,0.2-1.1,0.5c-0.3,0.3-0.5,0.7-0.5,1.1c0,0.1,0,0.2,0,0.4l2.9-1.3
			C71.5,9.6,71.1,9.3,70.6,9.3z M69.1,10.9c0-0.4,0.1-0.8,0.4-1.1c0.3-0.3,0.7-0.4,1.1-0.4c0.5,0,0.9,0.2,1.2,0.6l-2.7,1.2
			C69.1,11.1,69.1,11,69.1,10.9z M70.6,9.3c-0.4,0-0.8,0.2-1.1,0.5c-0.3,0.3-0.5,0.7-0.5,1.1c0,0.1,0,0.2,0,0.4l2.9-1.3
			C71.5,9.6,71.1,9.3,70.6,9.3z M69.1,10.9c0-0.4,0.1-0.8,0.4-1.1c0.3-0.3,0.7-0.4,1.1-0.4c0.5,0,0.9,0.2,1.2,0.6l-2.7,1.2
			C69.1,11.1,69.1,11,69.1,10.9z M70.6,9.3c-0.4,0-0.8,0.2-1.1,0.5c-0.3,0.3-0.5,0.7-0.5,1.1c0,0.1,0,0.2,0,0.4l2.9-1.3
			C71.5,9.6,71.1,9.3,70.6,9.3z M69.1,10.9c0-0.4,0.1-0.8,0.4-1.1c0.3-0.3,0.7-0.4,1.1-0.4c0.5,0,0.9,0.2,1.2,0.6l-2.7,1.2
			C69.1,11.1,69.1,11,69.1,10.9z"/>
	</g>
	<g>
		<path fill="#44D8CF" d="M75.4,9.1c0,0.1,0,0.2-0.1,0.2c-0.1,0.1-0.1,0.1-0.2,0.1h-0.2c-0.3,0-0.5,0.1-0.7,0.3
			c-0.2,0.2-0.3,0.4-0.3,0.7v2.4c0,0.1,0,0.2-0.1,0.2C73.7,13,73.6,13,73.5,13h0c-0.1,0-0.2,0-0.2-0.1c-0.1-0.1-0.1-0.1-0.1-0.2
			v-2.4c0-0.4,0.2-0.8,0.5-1.1c0.3-0.3,0.7-0.5,1.1-0.5h0.2c0.1,0,0.2,0,0.2,0.1C75.3,8.9,75.4,9,75.4,9.1z"/>
	</g>
</g>
</svg>
